<?xml version="1.0" encoding="UTF-8"?>
<svg id="Layer_1" data-name="Layer 1" xmlns="http://www.w3.org/2000/svg" viewBox="0 0 283.46 283.46">
  <defs>
    <style>
      .cls-1 {
        fill: #a4a1cf;
      }

      .cls-2 {
        fill: #1f1e59;
      }
    </style>
  </defs>
  <rect class="cls-2" width="283.46" height="283.46"/>
  <path class="cls-1" d="M64.92,84.25h36.21c25.52,0,44.44,8.86,44.44,35.44s-18.99,37.27-43.74,37.27h-16.52v42.25h-20.39v-114.96ZM100.15,140.64c17.16,0,25.31-6.83,25.31-20.95s-8.93-19.12-26.02-19.12h-14.13v40.08h14.84Z"/>
  <path class="cls-1" d="M165.53,112.86h16.59l1.55,15.4h.56c6.15-11.25,15.29-17.51,24.54-17.51,4.39,0,7.17.56,9.77,1.76l-3.52,17.58c-3.02-.84-5.27-1.4-8.86-1.4-6.89,0-15.19,4.71-20.39,17.86v52.66h-20.25v-86.35Z"/>
</svg>