<?xml version="1.0" encoding="UTF-8"?>
<svg id="Layer_1" data-name="Layer 1" xmlns="http://www.w3.org/2000/svg" viewBox="0 0 283.46 283.46">
  <defs>
    <style>
      .cls-1 {
        fill: #eba942;
      }

      .cls-2 {
        fill: #321211;
      }
    </style>
  </defs>
  <rect class="cls-2" width="283.46" height="283.46"/>
  <path class="cls-1" d="M112.17,88.96h23.91l37.48,114.96h-21.59l-17.51-61.17c-3.66-12.17-7.03-25.28-10.41-37.9h-.7c-3.16,12.72-6.54,25.73-10.19,37.9l-17.65,61.17h-20.81l37.48-114.96ZM96.84,156.78h54.14v16h-54.14v-16Z"/>
  <path class="cls-1" d="M183.74,91.01c0-6.83,5.34-11.46,12.52-11.46s12.52,4.64,12.52,11.46-5.34,11.45-12.52,11.45-12.52-4.78-12.52-11.45ZM186.06,117.57h20.25v86.35h-20.25v-86.35Z"/>
</svg>