<?xml version="1.0" encoding="UTF-8"?>
<svg id="Layer_1" data-name="Layer 1" xmlns="http://www.w3.org/2000/svg" viewBox="0 0 283.46 283.46">
  <defs>
    <style>
      .cls-1 {
        fill: #f05123;
      }

      .cls-1, .cls-2, .cls-3, .cls-4 {
        fill-rule: evenodd;
      }

      .cls-2 {
        fill: #8669ae;
      }

      .cls-5 {
        fill: #010101;
      }

      .cls-3 {
        fill: #f37263;
      }

      .cls-4 {
        fill: #46ba7e;
      }

      .cls-6 {
        fill: #46b8ea;
      }
    </style>
  </defs>
  <rect class="cls-5" width="283.46" height="283.46"/>
  <path class="cls-3" d="M175.98,37.26c9.24,0,18.09,3.67,24.62,10.2,6.53,6.53,10.2,15.39,10.2,24.62v.46c0,9.24-3.67,18.09-10.2,24.62-6.53,6.53-15.39,10.2-24.62,10.2h-34.59V37.26h34.59Z"/>
  <path class="cls-1" d="M141.38,37.26v70.11h-34.59c-9.24,0-18.09-3.67-24.62-10.2-6.53-6.53-10.2-15.39-10.2-24.62v-.46c0-9.24,3.67-18.09,10.2-24.62,6.53-6.53,15.39-10.2,24.62-10.2h34.59Z"/>
  <path class="cls-2" d="M141.38,107.37v70.11h-34.59c-9.24,0-18.09-3.67-24.62-10.2-6.53-6.53-10.2-15.39-10.2-24.62v-.46c0-9.24,3.67-18.09,10.2-24.62,6.53-6.53,15.39-10.2,24.62-10.2h34.59Z"/>
  <path class="cls-4" d="M141.38,177.48v35.4c0,19.17-15.54,34.71-34.71,34.71h0c-19.17,0-34.71-15.54-34.71-34.71v-.58c0-9.24,3.67-18.09,10.2-24.62,6.53-6.53,15.39-10.2,24.62-10.2h34.59Z"/>
  <circle class="cls-6" cx="176.44" cy="142.43" r="35.06"/>
</svg>