<?xml version="1.0" encoding="UTF-8"?>
<svg id="Layer_1" data-name="Layer 1" xmlns="http://www.w3.org/2000/svg" viewBox="0 0 283.46 283.46">
  <defs>
    <style>
      .cls-1 {
        fill: #5eb2e3;
      }

      .cls-2 {
        fill: #07203a;
      }
    </style>
  </defs>
  <rect class="cls-2" width="283.46" height="283.46"/>
  <path class="cls-1" d="M63.48,83.2h36.21c25.52,0,44.44,8.86,44.44,35.44s-18.98,37.27-43.73,37.27h-16.52v42.25h-20.39v-114.96ZM98.71,139.59c17.16,0,25.31-6.83,25.31-20.95s-8.93-19.12-26.02-19.12h-14.13v40.08h14.84Z"/>
  <path class="cls-1" d="M153.75,188.24l9.42-12.87c7.66,5.98,15.08,9.63,23.83,9.63,9.42,0,13.85-4.42,13.85-10.33,0-7.24-9.35-10.48-18.56-13.98-11.32-4.27-24.26-10.76-24.26-25.18s12.09-25.81,31.43-25.81c12.02,0,21.66,4.88,28.69,10.33l-9.28,12.45c-6.05-4.44-12.13-7.53-18.91-7.53-8.68,0-12.8,4.15-12.8,9.56,0,6.83,8.72,9.42,18.07,12.87,11.67,4.37,24.75,9.99,24.75,26.09,0,14.83-11.74,26.78-33.54,26.78-11.81,0-24.26-5.05-32.7-12.02Z"/>
</svg>