<?xml version="1.0" encoding="UTF-8"?>
<svg id="Layer_1" data-name="Layer 1" xmlns="http://www.w3.org/2000/svg" viewBox="0 0 283.46 283.46">
  <defs>
    <style>
      .cls-1 {
        fill: #431120;
      }

      .cls-2 {
        fill: #dc4274;
      }
    </style>
  </defs>
  <rect class="cls-1" width="283.46" height="283.46"/>
  <path class="cls-2" d="M81.11,87.8h20.39v114.96h-20.39v-114.96Z"/>
  <path class="cls-2" d="M123.68,159.67c0-28.12,17.65-45.36,36.56-45.36,9.77,0,15.96,3.66,22.64,9.49l-.77-13.91v-31.29h20.25v124.17h-16.59l-1.55-9.35h-.56c-6.4,6.4-15.26,11.45-24.54,11.45-21.52,0-35.44-16.73-35.44-45.2ZM182.11,178.43v-40.22c-5.91-5.27-11.74-7.17-17.58-7.17-10.97,0-20.04,10.41-20.04,28.41s7.17,28.68,19.62,28.68c6.68,0,12.3-2.95,18-9.7Z"/>
</svg>